# xmcd CD database file
#
# Track frame offsets:
#	182
#	2800
#	25980
#	42090
#	44837
#	62645
#	84080
#	96380
#	99405
#	120962
#	141690
#	160505
#	174972
#	192190
#	214475
#	216345
#	219030
#	238332
#	262762
#
# Disc length: 3603 seconds
#
# Revision: 0
# Processed by: cddbd v1.5.2PL0 Copyright (c) Steve Scherf et al.
# Submitted via: CDex 1.51
#
DISCID=070e1113
DTITLE=Shelly Manne Quintet-Stan Getz Quartet-Zoot Sims Quartet - Manne - Getz - Zoot Live 1956 and 1957
DYEAR=1957
DGENRE=Jazz
TTITLE0=Introduction
TTITLE1=Some blues
TTITLE2=Polka dots and moonbeams
TTITLE3=Introduction
TTITLE4=Jordu
TTITLE5=Lover man
TTITLE6=in't you a mess
TTITLE7=Introduction
TTITLE8=The dart game
TTITLE9=Pathenia
TTITLE10=Bea's flat
TTITLE11=A gem from Tiffany
TTITLE12=Little girl blue
TTITLE13=Lover come back to me
TTITLE14=Closing
TTITLE15=Introduction
TTITLE16=There'll never be another you
TTITLE17=You go to my head
TTITLE18=Bohemia after dark - Closing
EXTD=YEAR: 1957
EXTT0=
EXTT1=
EXTT2=
EXTT3=
EXTT4=
EXTT5=
EXTT6=
EXTT7=
EXTT8=
EXTT9=
EXTT10=
EXTT11=
EXTT12=
EXTT13=
EXTT14=
EXTT15=
EXTT16=
EXTT17=
EXTT18=
PLAYORDER=
